<svg width="347" height="301" viewBox="0 0 347 301" fill="none" xmlns="http://www.w3.org/2000/svg">
<path d="M118.992 2.28864C153.426 -0.874714 180.601 -1.21874 214.495 4.21166C236.611 4.21166 254.451 10.5013 272.537 21.5249C283.732 28.3486 294.358 34.4443 303.548 43.6466C312.793 52.9039 322.039 65.0528 331.677 73.3253C354.579 92.9825 346.27 141.123 341.694 166.071C331.295 222.767 290.684 257.516 243.036 285.886C218.168 300.692 193.65 301 165.646 301C123.308 301 85.7873 294.473 51.7566 267.474C26.9435 247.788 6.13303 213.594 2.6333 181.735C0.067749 158.381 -1.71222 128.273 2.6333 105.065C12.3498 53.1736 67.4064 7.0277 118.992 2.28864Z" fill="#C7B9FF"/>
</svg>
